<?xml version="1.0" encoding="UTF-8"?><svg id="_レイヤー_1" xmlns="http://www.w3.org/2000/svg" viewBox="0 0 667.57 505.3"><defs><style>.cls-1{fill:#473419;}.cls-2{fill:#4db9d6;}.cls-3{fill:#7dc9dd;}.cls-4{fill:#338eab;}</style></defs><path class="cls-1" d="M602.27,102.31C569.21,41.03,540.09-5.73,460.09.57c-25.29,1.99-37.61,13.48-47.82,35.68l-78.49-.11-78.49.11C245.09,14.05,232.77,2.56,207.48.57,127.48-5.73,98.36,41.03,65.3,102.31,30,167.71-10.18,336.05,2.34,408.34c16.07,92.84,122.42,131.13,188.98,60.47,15.27-16.22,38.22-64.4,49.04-72.31,8.2-6,51.17-8.88,93.43-8.87,42.26-.02,85.23,2.87,93.43,8.87,10.82,7.92,33.77,56.09,49.04,72.31,66.56,70.66,172.91,32.38,188.98-60.47,12.51-72.29-27.67-240.63-62.96-306.03Z"/><path class="cls-4" d="M622.02,276.39c-12.75-54.4-26.09-109.08-49.34-159.89-15.5-33.88-37.66-67.82-72.28-81.58-13.39-5.32-28.9-7.17-42.07-1.31s-22.74,20.9-19.12,34.85l-105.43-.49-105.43.49c3.61-13.95-5.96-28.99-19.12-34.85-13.17-5.86-28.68-4.01-42.07,1.31-34.62,13.76-56.78,47.7-72.28,81.58-23.24,50.81-36.59,105.49-49.34,159.89-7.67,32.74-15.23,66.08-13.13,99.64,1.54,24.6,8.82,49.55,23.57,69.55,3.65,4.95,7.75,9.56,12.29,13.71,4.35,3.98,8.94,5.91,14.42,8,10.94,4.16,22.84,5.61,34.48,4.55,17.45-1.58,34.52-8.84,47.08-21.18,26.16-25.72,33.89-69.79,67.12-85.33,10.46-4.9,22.21-6.17,33.72-7.13,22.84-1.91,45.76-2.89,68.69-2.92,22.92.03,45.84,1.01,68.69,2.92,11.51.96,23.26,2.23,33.72,7.13,33.23,15.54,40.96,59.62,67.12,85.33,12.56,12.35,29.63,19.6,47.08,21.18,11.64,1.05,23.54-.4,34.48-4.55,5.48-2.09,10.07-4.02,14.42-8,4.54-4.15,8.64-8.76,12.29-13.71,14.75-20,22.03-44.95,23.57-69.55,2.1-33.56-5.46-66.9-13.13-99.64Z"/><path class="cls-3" d="M440.66,67.43c49.79,1.36,100.61,1.01,116.9,59.01-18.16-21.71-63.84-30.37-90.69-32.33-78.98-5.76-185.08-6.7-263.94-1.11-109.92,7.78-112.86,73.61-133.59,165.9-12.48,55.59-33.33,135.35-4.99,184.84,2.58,4.52,5.03,11.75,8.91,15.59-58.17-36.02-36.74-131.94-25.06-188.17,13.07-62.89,29.01-117.92,60.69-173.67,38.18-29.29,76.09-27.4,121.35-28.95,68.53-2.35,141.94-2.98,210.42-1.11h0Z"/><path class="cls-2" d="M64.94,443.08c-1.68-1.5-3.08-3.19-4.08-5.09-15.14-29.04-12-71.23-7.55-102.38,5.21-36.45,16.01-71.84,23.77-107.84,8.2-38.05,14.68-79.98,43.55-106.09,26.96-24.38,66.24-28.13,102.55-29.84,56.26-2.65,112.61-3.33,168.92-2.02,40.35.94,80.98,2.94,120.19,12.52,15.42,3.77,31.32,9.17,41.96,20.95,9.07,10.04,13.21,23.47,16.91,36.48,7.56,26.59,14.34,53.41,20.34,80.4,8.27,37.19,15.07,74.93,15.56,113.02.27,20.31-1.5,41.46-11.64,59.06-9.98,17.33-27.96,29.82-47.68,33.14-19.72,3.32-40.8-2.59-55.91-15.69-28.04-24.3-34.66-69.63-67.56-86.78-11.47-5.98-24.66-7.55-37.54-8.68-36.14-3.15-72.53-3.5-108.73-1.04-14.93,1.01-30.11,2.57-43.87,8.44-22.08,9.42-38.1,28.82-52.45,48.07-14.35,19.25-28.48,39.58-48.8,52.35-12.09,7.6-26.87,11.83-41.18,10.64-8.16-.67-19.86-3.51-26.76-9.64Z"/><path class="cls-1" d="M233.34,157.94c39.41-.32,33.65,82.11-1.43,82.12-34.7,0-39.79-81.77,1.43-82.12Z"/><path class="cls-1" d="M429.26,155.68c43.92-6.18,40.85,79.11,6.35,80.97-39.04,2.1-39.22-76.34-6.35-80.97Z"/><path class="cls-1" d="M372.45,235.77c15.33-3.5,18.74,13.64,12.78,25.05-13.07,25.05-58.39,30.39-81.16,16.13-9.4-5.89-27.76-27.1-14.89-37.59,15.79-12.87,24.55,22.01,49.29,20.43,19.37-1.24,26.98-22.42,33.98-24.01h0Z"/></svg>